<mxfile host="app.diagrams.net" modified="2021-06-07T16:25:36.360Z" agent="5.0 (Windows NT 10.0; Win64; x64) AppleWebKit/537.36 (KHTML, like Gecko) Chrome/90.0.4430.212 Safari/537.36" etag="vALYizoHD82x4BhuTXRq" version="14.7.6" type="github">
  <diagram id="qYx7YOaepi6QoNWct3qu" name="Page-1">
    <mxGraphModel dx="1038" dy="548" grid="1" gridSize="10" guides="1" tooltips="1" connect="1" arrows="1" fold="1" page="1" pageScale="1" pageWidth="827" pageHeight="1169" math="0" shadow="0">
      <root>
        <mxCell id="0" />
        <mxCell id="1" parent="0" />
        <mxCell id="bD8zFZCyIsmYKDcrKDae-1" value="front-end" style="swimlane;fillColor=#d5e8d4;strokeColor=#82b366;" vertex="1" parent="1">
          <mxGeometry x="80" y="40" width="360" height="410" as="geometry" />
        </mxCell>
        <mxCell id="bD8zFZCyIsmYKDcrKDae-2" value="會員中心" style="rounded=0;whiteSpace=wrap;html=1;" vertex="1" parent="bD8zFZCyIsmYKDcrKDae-1">
          <mxGeometry x="40" y="40" width="120" height="60" as="geometry" />
        </mxCell>
        <mxCell id="bD8zFZCyIsmYKDcrKDae-4" value="顯示已使用點數歷史紀錄" style="rounded=0;whiteSpace=wrap;html=1;" vertex="1" parent="bD8zFZCyIsmYKDcrKDae-1">
          <mxGeometry x="200" y="120" width="120" height="60" as="geometry" />
        </mxCell>
        <mxCell id="bD8zFZCyIsmYKDcrKDae-5" value="顯示已獲得點數歷史紀錄" style="rounded=0;whiteSpace=wrap;html=1;" vertex="1" parent="bD8zFZCyIsmYKDcrKDae-1">
          <mxGeometry x="200" y="200" width="120" height="60" as="geometry" />
        </mxCell>
        <mxCell id="bD8zFZCyIsmYKDcrKDae-7" style="edgeStyle=orthogonalEdgeStyle;rounded=0;orthogonalLoop=1;jettySize=auto;html=1;exitX=0.5;exitY=1;exitDx=0;exitDy=0;entryX=1;entryY=0.5;entryDx=0;entryDy=0;" edge="1" parent="1" source="bD8zFZCyIsmYKDcrKDae-3" target="bD8zFZCyIsmYKDcrKDae-4">
          <mxGeometry relative="1" as="geometry">
            <Array as="points">
              <mxPoint x="660" y="190" />
            </Array>
          </mxGeometry>
        </mxCell>
        <mxCell id="bD8zFZCyIsmYKDcrKDae-3" value="point資料庫" style="rounded=0;whiteSpace=wrap;html=1;" vertex="1" parent="1">
          <mxGeometry x="600" y="80" width="120" height="60" as="geometry" />
        </mxCell>
        <mxCell id="bD8zFZCyIsmYKDcrKDae-6" style="edgeStyle=orthogonalEdgeStyle;rounded=0;orthogonalLoop=1;jettySize=auto;html=1;exitX=1;exitY=0.5;exitDx=0;exitDy=0;entryX=0;entryY=0.5;entryDx=0;entryDy=0;" edge="1" parent="1" source="bD8zFZCyIsmYKDcrKDae-2" target="bD8zFZCyIsmYKDcrKDae-3">
          <mxGeometry relative="1" as="geometry" />
        </mxCell>
        <mxCell id="bD8zFZCyIsmYKDcrKDae-8" style="edgeStyle=orthogonalEdgeStyle;rounded=0;orthogonalLoop=1;jettySize=auto;html=1;entryX=1;entryY=0.5;entryDx=0;entryDy=0;" edge="1" parent="1">
          <mxGeometry relative="1" as="geometry">
            <mxPoint x="660" y="190" as="sourcePoint" />
            <mxPoint x="400" y="270" as="targetPoint" />
            <Array as="points">
              <mxPoint x="660" y="270" />
            </Array>
          </mxGeometry>
        </mxCell>
        <mxCell id="bD8zFZCyIsmYKDcrKDae-9" value="DB" style="swimlane;fillColor=#d5e8d4;strokeColor=#82b366;" vertex="1" parent="1">
          <mxGeometry x="440" y="40" width="330" height="410" as="geometry" />
        </mxCell>
      </root>
    </mxGraphModel>
  </diagram>
</mxfile>
